<svg xmlns="http://www.w3.org/2000/svg" xmlns:xlink="http://www.w3.org/1999/xlink"><defs><clipPath id="clip0"><path fill="#fff" d="M0 0h24v24H0z"/></clipPath><clipPath id="clip0"><rect/></clipPath></defs><symbol id="connect__btn" viewBox="0 0 43 43"><path d="M28.975 19.708l-9.61-9.61 2.533-2.534L35.833 21.5 21.898 35.436l-2.534-2.534 9.61-9.61H7.168v-3.584h21.808z"/></symbol><symbol id="header__menu" viewBox="0 0 26 15"><path fill="#fff" d="M0 0h26v1H0zm0 7h19v1H0zm0 7h23v1H0z"/></symbol><symbol id="navigation__close" viewBox="0 0 24 24"><g clip-path="url(#clip0)" fill="#fff"><path d="M23.716.284a.97.97 0 00-1.37 0L.283 22.345a.97.97 0 101.371 1.371l22.061-22.06a.97.97 0 000-1.372z"/><path d="M23.716 22.345L1.655.285a.97.97 0 10-1.371 1.37l22.06 22.061a.966.966 0 001.372 0 .97.97 0 000-1.37z"/></g></symbol><symbol id="slider__icon" viewBox="0 0 24 24"><path d="M10 6v2H5v11h11v-5h2v6a1 1 0 01-1 1H4a1 1 0 01-1-1V7a1 1 0 011-1h6zm11-3v9l-3.794-3.793-5.999 6-1.414-1.414 5.999-6L12 3h9z"/></symbol><symbol id="spec__btn" viewBox="0 0 22 22"><g clip-path="url(#clip0)"><path d="M11 15.537L15.537 11l1.297 1.296L11 18.13l-5.834-5.834L6.463 11 11 15.537z"/></g></symbol><symbol id="switch__sun" viewBox="0 0 24 24"><path d="M12 18a6 6 0 110-12 6 6 0 010 12zM11 1h2v3h-2V1zm0 19h2v3h-2v-3zM3.515 4.929l1.414-1.414L7.05 5.636 5.636 7.05 3.515 4.93v-.001zM16.95 18.364l1.414-1.414 2.121 2.121-1.414 1.414-2.121-2.121zm2.121-14.85l1.414 1.415-2.121 2.121-1.414-1.414 2.121-2.121v-.001zM5.636 16.95l1.414 1.414-2.121 2.121-1.414-1.414 2.121-2.121zM23 11v2h-3v-2h3zM4 11v2H1v-2h3z"/></symbol></svg>